<svg id="Layer_1" data-name="Layer 1" xmlns="http://www.w3.org/2000/svg" viewBox="0 0 180 180"><defs><style>.cls-1{fill:#2a2e4b;}.cls-2,.cls-3,.cls-4{fill:none;stroke-miterlimit:10;}.cls-2,.cls-3{stroke:#a1a0d4;}.cls-2{stroke-linecap:round;stroke-width:6px;}.cls-3,.cls-4{stroke-width:3px;}.cls-4{stroke:#30bfbf;}</style></defs><title>Applies Icon</title><circle class="cls-1" cx="90" cy="90" r="90"/><polyline class="cls-2" points="44.79 89.02 67.66 111.89 120.13 59.42"/><path class="cls-3" d="M945.26,2275a103.36,103.36,0,0,1-16.42,0,2.32,2.32,0,0,1-2.12-2.12,103.36,103.36,0,0,1,0-16.42,2.32,2.32,0,0,1,2.12-2.12,103.36,103.36,0,0,1,16.42,0,2.32,2.32,0,0,1,2.12,2.12,103.36,103.36,0,0,1,0,16.42A2.32,2.32,0,0,1,945.26,2275Z" transform="translate(-812.5 -2181)"/><path class="cls-3" d="M919.05,2301.25a103.36,103.36,0,0,1-16.42,0,2.32,2.32,0,0,1-2.12-2.12,103.36,103.36,0,0,1,0-16.42,2.32,2.32,0,0,1,2.12-2.12,103.36,103.36,0,0,1,16.42,0,2.32,2.32,0,0,1,2.12,2.12,103.36,103.36,0,0,1,0,16.42A2.32,2.32,0,0,1,919.05,2301.25Z" transform="translate(-812.5 -2181)"/><path class="cls-4" d="M945.26,2301.25a103.36,103.36,0,0,1-16.42,0,2.32,2.32,0,0,1-2.12-2.12,103.36,103.36,0,0,1,0-16.42,2.32,2.32,0,0,1,2.12-2.12,103.36,103.36,0,0,1,16.42,0,2.32,2.32,0,0,1,2.12,2.12,103.36,103.36,0,0,1,0,16.42A2.32,2.32,0,0,1,945.26,2301.25Z" transform="translate(-812.5 -2181)"/></svg>