<svg id="Layer_1" data-name="Layer 1" xmlns="http://www.w3.org/2000/svg" viewBox="0 0 90 81.72"><defs><style>.cls-1{fill:#7c7ca4;}</style></defs><title>Heavy Rain</title><path class="cls-1" d="M-2490.14,8017.93a1.25,1.25,0,0,0-1.68.56l-8.46,16.92a1.25,1.25,0,0,0,.56,1.68,1.28,1.28,0,0,0,.56.13,1.25,1.25,0,0,0,1.12-.69l8.46-16.92a1.24,1.24,0,0,0-.56-1.68" transform="translate(2515.55 -7955.5)"/><path class="cls-1" d="M-2476,8017.93a1.25,1.25,0,0,0-1.68.56l-8.46,16.92a1.24,1.24,0,0,0,.56,1.68,1.29,1.29,0,0,0,.56.13,1.26,1.26,0,0,0,1.12-.69l8.46-16.92a1.25,1.25,0,0,0-.56-1.68" transform="translate(2515.55 -7955.5)"/><path class="cls-1" d="M-2461.93,8017.93a1.26,1.26,0,0,0-1.68.56l-8.46,16.92a1.26,1.26,0,0,0,.56,1.68,1.29,1.29,0,0,0,.56.13,1.26,1.26,0,0,0,1.12-.69l8.46-16.92a1.24,1.24,0,0,0-.56-1.68" transform="translate(2515.55 -7955.5)"/><path class="cls-1" d="M-2447.81,8017.93a1.25,1.25,0,0,0-1.68.56l-8.46,16.92a1.24,1.24,0,0,0,.56,1.68,1.28,1.28,0,0,0,.56.13,1.26,1.26,0,0,0,1.12-.69l8.46-16.92a1.26,1.26,0,0,0-.56-1.68" transform="translate(2515.55 -7955.5)"/><path class="cls-1" d="M-2433.71,8017.93a1.26,1.26,0,0,0-1.68.56l-8.46,16.92a1.25,1.25,0,0,0,.56,1.68,1.28,1.28,0,0,0,.56.13,1.25,1.25,0,0,0,1.12-.69l8.46-16.92a1.24,1.24,0,0,0-.56-1.68" transform="translate(2515.55 -7955.5)"/><path class="cls-1" d="M-2484.87,8008.38h43.16a6.79,6.79,0,0,1,.87,0v0a12.8,12.8,0,0,0,12.79-12.78,12.81,12.81,0,0,0-12.79-12.79,13,13,0,0,0-3.08.39,1.2,1.2,0,0,1-1-.17,1.25,1.25,0,0,1-.55-0.85,18.49,18.49,0,0,0-18.35-15.71,18.64,18.64,0,0,0-18.61,18.61c0,0.51,0,1,.08,1.5a1.22,1.22,0,0,1-.37,1,1.25,1.25,0,0,1-1,.35c-0.37,0-.74-0.07-1.12-0.07a10.28,10.28,0,0,0-10.26,10.26,10.27,10.27,0,0,0,10.26,10.25m-0.08-23v-0.27a21.14,21.14,0,0,1,21.12-21.12,21,21,0,0,1,20.59,16.54,14.62,14.62,0,0,1,2.39-.2,15.31,15.31,0,0,1,15.3,15.3,15.31,15.31,0,0,1-15.3,15.29h-44a12.78,12.78,0,0,1-12.77-12.76,12.78,12.78,0,0,1,12.7-12.77" transform="translate(2515.55 -7955.5)"/><path class="cls-1" d="M-2500.25,7971.83a14.6,14.6,0,0,1,2.38.2,21,21,0,0,1,20.59-16.54,21,21,0,0,1,12.1,3.81,1.25,1.25,0,0,1,.31,1.75,1.25,1.25,0,0,1-1.75.3,18.58,18.58,0,0,0-10.66-3.35,18.5,18.5,0,0,0-18.36,15.71,1.21,1.21,0,0,1-.54.84,1.24,1.24,0,0,1-1,.17,12.88,12.88,0,0,0-3.08-.39,12.8,12.8,0,0,0-12.78,12.79,12.74,12.74,0,0,0,11.45,12.72,1.26,1.26,0,0,1,1.12,1.38,1.26,1.26,0,0,1-1.26,1.12h-0.12a15.25,15.25,0,0,1-13.71-15.22,15.31,15.31,0,0,1,15.3-15.3" transform="translate(2515.55 -7955.5)"/></svg>