<svg id="Layer_1" data-name="Layer 1" xmlns="http://www.w3.org/2000/svg" viewBox="0 0 62.75 43.34"><defs><style>.cls-1,.cls-2,.cls-3{fill:none;}.cls-1,.cls-2{stroke:#a1a0d4;}.cls-1{stroke-linecap:round;stroke-linejoin:round;stroke-width:4px;}.cls-2,.cls-3{stroke-miterlimit:10;stroke-width:1.5px;}.cls-3{stroke:#30bfbf;opacity:0.5;}</style></defs><title>Applies for Total</title><polyline class="cls-1" points="2 21.64 17.18 36.82 51.99 2"/><path class="cls-2" d="M778.46,645.69a68.59,68.59,0,0,1-10.89,0,1.54,1.54,0,0,1-1.41-1.41,68.59,68.59,0,0,1,0-10.89,1.54,1.54,0,0,1,1.41-1.41,68.59,68.59,0,0,1,10.89,0,1.54,1.54,0,0,1,1.41,1.41,68.59,68.59,0,0,1,0,10.89A1.54,1.54,0,0,1,778.46,645.69Z" transform="translate(-718.08 -620.71)"/><path class="cls-2" d="M761.06,663.08a68.59,68.59,0,0,1-10.89,0,1.54,1.54,0,0,1-1.41-1.41,68.59,68.59,0,0,1,0-10.89,1.54,1.54,0,0,1,1.41-1.41,68.59,68.59,0,0,1,10.89,0,1.54,1.54,0,0,1,1.41,1.41,68.59,68.59,0,0,1,0,10.89A1.54,1.54,0,0,1,761.06,663.08Z" transform="translate(-718.08 -620.71)"/><path class="cls-3" d="M778.46,663.08a68.59,68.59,0,0,1-10.89,0,1.54,1.54,0,0,1-1.41-1.41,68.59,68.59,0,0,1,0-10.89,1.54,1.54,0,0,1,1.41-1.41,68.59,68.59,0,0,1,10.89,0,1.54,1.54,0,0,1,1.41,1.41,68.59,68.59,0,0,1,0,10.89A1.54,1.54,0,0,1,778.46,663.08Z" transform="translate(-718.08 -620.71)"/></svg>