<svg id="Layer_1" data-name="Layer 1" xmlns="http://www.w3.org/2000/svg" viewBox="0 0 200.89 200.89"><defs><style>.cls-1{fill:#2a2e4b;}.cls-2,.cls-3,.cls-4,.cls-5,.cls-6{fill:none;}.cls-2{stroke:#1c89f1;}.cls-2,.cls-3,.cls-4{stroke-linecap:round;stroke-width:4px;}.cls-2,.cls-3,.cls-5,.cls-6{stroke-miterlimit:10;}.cls-3,.cls-4,.cls-5{stroke:#a1a0d4;}.cls-4{stroke-linejoin:round;}.cls-5,.cls-6{stroke-width:2.5px;}.cls-6{stroke:#30bfbf;}</style></defs><title>Apply</title><circle class="cls-1" cx="168.4" cy="32.49" r="32.49"/><line class="cls-2" x1="168.4" y1="13.49" x2="168.4" y2="51.49"/><line class="cls-2" x1="187.4" y1="32.49" x2="149.4" y2="32.49"/><circle class="cls-1" cx="90" cy="110.89" r="90"/><path class="cls-3" d="M90,1660.22q0,19.25,1.52,38.63a21.18,21.18,0,0,0,18.87,19.38,372.46,372.46,0,0,0,79.26,0,21.17,21.17,0,0,0,18.84-19.38q1.51-19.32,1.52-38.52t-1.52-38.52a21.17,21.17,0,0,0-18.84-19.38,372.46,372.46,0,0,0-79.26,0,21.18,21.18,0,0,0-18.87,19.38Q90,1641.25,90,1660.5" transform="translate(-60 -1549.47)"/><polyline class="cls-4" points="44.79 109.91 67.66 132.78 120.13 80.31"/><path class="cls-5" d="M192.76,1664.41a103.36,103.36,0,0,1-16.42,0,2.32,2.32,0,0,1-2.12-2.12,103.36,103.36,0,0,1,0-16.42,2.32,2.32,0,0,1,2.12-2.12,103.36,103.36,0,0,1,16.42,0,2.32,2.32,0,0,1,2.12,2.12,103.36,103.36,0,0,1,0,16.42A2.32,2.32,0,0,1,192.76,1664.41Z" transform="translate(-60 -1549.47)"/><path class="cls-5" d="M166.55,1690.62a103.36,103.36,0,0,1-16.42,0,2.32,2.32,0,0,1-2.12-2.12,103.36,103.36,0,0,1,0-16.42,2.32,2.32,0,0,1,2.12-2.12,103.36,103.36,0,0,1,16.42,0,2.32,2.32,0,0,1,2.12,2.12,103.36,103.36,0,0,1,0,16.42A2.32,2.32,0,0,1,166.55,1690.62Z" transform="translate(-60 -1549.47)"/><path class="cls-6" d="M192.76,1690.62a103.36,103.36,0,0,1-16.42,0,2.32,2.32,0,0,1-2.12-2.12,103.36,103.36,0,0,1,0-16.42,2.32,2.32,0,0,1,2.12-2.12,103.36,103.36,0,0,1,16.42,0,2.32,2.32,0,0,1,2.12,2.12,103.36,103.36,0,0,1,0,16.42A2.32,2.32,0,0,1,192.76,1690.62Z" transform="translate(-60 -1549.47)"/></svg>