<svg id="Layer_1" data-name="Layer 1" xmlns="http://www.w3.org/2000/svg" viewBox="0 0 200.77 200.86"><defs><style>.cls-1{fill:#2a2e4b;}.cls-2,.cls-3,.cls-4,.cls-5,.cls-6{fill:none;stroke-linecap:round;}.cls-2{stroke:#1c89f1;}.cls-2,.cls-3,.cls-6{stroke-miterlimit:10;}.cls-2,.cls-5,.cls-6{stroke-width:4px;}.cls-3,.cls-4,.cls-6{stroke:#a1a0d4;}.cls-3{stroke-width:6px;}.cls-4,.cls-5{stroke-linejoin:round;}.cls-4{stroke-width:2.5px;}.cls-5{stroke:#30bfbf;}</style></defs><title>Task</title><circle class="cls-1" cx="168.28" cy="32.5" r="32.5"/><line class="cls-2" x1="168.28" y1="13.5" x2="168.28" y2="51.5"/><line class="cls-2" x1="187.28" y1="32.5" x2="149.28" y2="32.5"/><circle class="cls-1" cx="90" cy="110.86" r="90"/><line class="cls-3" x1="63.59" y1="63.18" x2="52.91" y2="45.08"/><line class="cls-3" x1="116.41" y1="63.18" x2="127.09" y2="45.08"/><line class="cls-4" x1="56" y1="74.12" x2="124.08" y2="74.12"/><line class="cls-4" x1="56" y1="108.3" x2="124.08" y2="108.3"/><line class="cls-5" x1="56" y1="142.29" x2="90.08" y2="142.29"/><path class="cls-6" d="M667.23,1601.79q-3.38.3-6.75,0.66a21.17,21.17,0,0,0-18.86,19.37q-1.51,19.37-1.52,38.61" transform="translate(-610.08 -1549.5)"/><path class="cls-6" d="M723.65,1719.52" transform="translate(-610.08 -1549.5)"/><path class="cls-6" d="M759.48,1683.7" transform="translate(-610.08 -1549.5)"/><path class="cls-6" d="M640.11,1660.15q0,19.24,1.52,38.61a21.2,21.2,0,0,0,18.93,19.38,373.86,373.86,0,0,0,59.8,1.58,3.5,3.5,0,0,0,3.3-3.5v-18.52a14,14,0,0,1,14-14h18.48a3.51,3.51,0,0,0,3.5-3.35q0.41-10,.42-20.06" transform="translate(-610.08 -1549.5)"/><line class="cls-6" x1="112.88" y1="168.81" x2="148.49" y2="133.2"/><path class="cls-6" d="M668.73,1601.63a372.84,372.84,0,0,1,70.94.82,21.17,21.17,0,0,1,18.86,19.37q1.51,19.37,1.52,38.61" transform="translate(-610.08 -1549.5)"/><path class="cls-6" d="M676.5,1719.52" transform="translate(-610.08 -1549.5)"/><path class="cls-6" d="M640.68,1683.7" transform="translate(-610.08 -1549.5)"/></svg>