<svg id="Layer_1" data-name="Layer 1" xmlns="http://www.w3.org/2000/svg" viewBox="0 0 107.62 77.9"><defs><style>.cls-1{fill:none;stroke:#0a0d22;stroke-miterlimit:10;stroke-width:10px;}</style></defs><title>Quotation</title><path class="cls-1" d="M205.43,1348.24a63.26,63.26,0,0,1,24.88-27.61,69,69,0,0,1,11.15-5.42c0.72-.28.91-0.07,1.13,0.57,0.76,2.22,1.55,4.43,2.4,6.61a0.91,0.91,0,0,1-.45,1.31,37.55,37.55,0,0,0-8.6,7.42,21.38,21.38,0,0,0-4.67,8.24c-0.44,1.63-.16,2.22,1.37,3a21.06,21.06,0,0,1,11.53,15.29c2.73,13.41-8.68,26.31-22.34,25.28-12.81-1-21.48-11.91-19.63-24.68A40.22,40.22,0,0,1,205.43,1348.24Z" transform="translate(-196.96 -1310.08)"/><path class="cls-1" d="M259.9,1348.24a63.26,63.26,0,0,1,24.88-27.61,69,69,0,0,1,11.15-5.42c0.72-.28.91-0.07,1.13,0.57,0.76,2.22,1.55,4.43,2.4,6.61a0.91,0.91,0,0,1-.45,1.31,37.55,37.55,0,0,0-8.6,7.42,21.38,21.38,0,0,0-4.67,8.24c-0.44,1.63-.16,2.22,1.37,3a21.06,21.06,0,0,1,11.53,15.29c2.73,13.41-8.68,26.31-22.34,25.28-12.81-1-21.48-11.91-19.63-24.68A40.22,40.22,0,0,1,259.9,1348.24Z" transform="translate(-196.96 -1310.08)"/></svg>