<svg id="Layer_1" data-name="Layer 1" xmlns="http://www.w3.org/2000/svg" viewBox="0 0 180 180"><defs><style>.cls-1,.cls-3{fill:#2a2e4b;}.cls-2,.cls-4{fill:none;}.cls-2,.cls-3{stroke:#a1a0d4;}.cls-2,.cls-3,.cls-4{stroke-linecap:round;stroke-linejoin:round;}.cls-2{stroke-width:6px;}.cls-3,.cls-4{stroke-width:2.5px;fill-rule:evenodd;}.cls-4{stroke:#30bfbf;}</style></defs><title>Setting Icon</title><circle class="cls-1" cx="90" cy="90" r="90"/><path class="cls-2" d="M1004.48,261a16.45,16.45,0,0,0,3-32.63" transform="translate(-901 -133)"/><path class="cls-2" d="M955.24,261a16.45,16.45,0,1,1,4.3-32.33" transform="translate(-901 -133)"/><line class="cls-2" x1="54.23" y1="127.96" x2="103.61" y2="127.96"/><path class="cls-2" d="M952.34,228.32A28,28,0,1,1,979.9,261" transform="translate(-901 -133)"/><path class="cls-3" d="M1002,192a26.16,26.16,0,0,0-4.93,2.69l-3.59-3.55a0.4,0.4,0,0,0-.57,0L987.11,197a0.4,0.4,0,0,0,0,.57l3.58,3.54a25.73,25.73,0,0,0-2.71,4.87,25.37,25.37,0,0,0-1.61,5.46h-5.06a0.4,0.4,0,0,0-.4.4V220a0.4,0.4,0,0,0,.4.4h5.06a25.44,25.44,0,0,0,1.61,5.46,25.82,25.82,0,0,0,2.71,4.87l-3.58,3.54a0.4,0.4,0,0,0,0,.57l5.83,5.77a0.4,0.4,0,0,0,.57,0l3.58-3.55a26.09,26.09,0,0,0,10.44,4.29v5a0.4,0.4,0,0,0,.4.4h8.25a0.41,0.41,0,0,0,.4-0.41v-5a26.07,26.07,0,0,0,10.44-4.28l3.58,3.55a0.4,0.4,0,0,0,.57,0l5.83-5.77a0.4,0.4,0,0,0,0-.57l-3.58-3.54a25.52,25.52,0,0,0,4.33-10.33h5.06a0.4,0.4,0,0,0,.4-0.4v-8.16a0.4,0.4,0,0,0-.4-0.4h-5.06a25.58,25.58,0,0,0-1.61-5.46,25.91,25.91,0,0,0-2.71-4.87l3.58-3.54a0.4,0.4,0,0,0,0-.57l-5.83-5.77a0.41,0.41,0,0,0-.57,0l-3.58,3.55a26.11,26.11,0,0,0-10.44-4.28v-5a0.4,0.4,0,0,0-.4-0.4h-8.24a0.4,0.4,0,0,0-.4.4v5A26.12,26.12,0,0,0,1002,192h0Z" transform="translate(-901 -133)"/><path class="cls-4" d="M1018,201.93a15.3,15.3,0,0,1,8.15,8.07,15,15,0,0,1,0,11.78,15.19,15.19,0,0,1-1.41,2.58,15.35,15.35,0,0,1-21.23,4.1,15.35,15.35,0,0,1-4.14-4.1,15.09,15.09,0,0,1-1.41-2.58A15,15,0,0,1,998,210a15.16,15.16,0,0,1,1.41-2.58A15.38,15.38,0,0,1,1018,201.93Z" transform="translate(-901 -133)"/></svg>