<svg id="Layer_1" data-name="Layer 1" xmlns="http://www.w3.org/2000/svg" viewBox="0 0 180 180"><defs><style>.cls-1{fill:#181a2a;}.cls-2,.cls-3{fill:none;stroke-linecap:round;stroke-miterlimit:10;}.cls-2{stroke:#30bfbf;stroke-width:1.5px;}.cls-3{stroke:#5d5d7b;stroke-width:4px;}</style></defs><title>Calnedar</title><circle class="cls-1" cx="90" cy="90" r="90"/><line class="cls-2" x1="142.78" y1="52.41" x2="37.21" y2="52.41"/><path class="cls-3" d="M-2481.89,7594.93q0,17.83,1.41,35.77a19.61,19.61,0,0,0,17.47,17.95,344.87,344.87,0,0,0,73.39,0,19.6,19.6,0,0,0,17.44-17.94q1.4-17.89,1.41-35.67t-1.41-35.67a19.6,19.6,0,0,0-17.44-17.94,344.87,344.87,0,0,0-73.39,0,19.61,19.61,0,0,0-17.47,17.95q-1.4,17.94-1.41,35.77" transform="translate(2516.33 -7505.35)"/><line class="cls-3" x1="115.1" y1="45.71" x2="126.22" y2="26.85"/><line class="cls-3" x1="64.9" y1="45.71" x2="53.78" y2="26.85"/></svg>