<svg id="Layer_1" data-name="Layer 1" xmlns="http://www.w3.org/2000/svg" viewBox="0 0 180 180"><defs><style>.cls-1{fill:#2a2e4b;}.cls-2,.cls-3{fill:none;stroke-miterlimit:10;}.cls-2{stroke:#a1a0d4;stroke-linecap:round;stroke-width:6px;}.cls-3{stroke:#30bfbf;stroke-width:3px;}</style></defs><title>Home Icon</title><circle class="cls-1" cx="90" cy="90" r="90"/><path class="cls-2" d="M223.59,2305.56q-14.7,0-29.4-.9a4.68,4.68,0,0,1-4.35-4.3,246.58,246.58,0,0,1,.36-43.88" transform="translate(-133.59 -2181)"/><path class="cls-3" d="M223.59,2282.37H217.4a2.33,2.33,0,0,0-2.33,2.33v20.73" transform="translate(-133.59 -2181)"/><polyline class="cls-2" points="142.27 86.14 90 56.6 37.73 86.14"/><path class="cls-2" d="M223.59,2305.56q14.7,0,29.4-.9a4.68,4.68,0,0,0,4.35-4.3,246.58,246.58,0,0,0-.36-43.88" transform="translate(-133.59 -2181)"/><path class="cls-3" d="M223.59,2282.37h6.19a2.33,2.33,0,0,1,2.33,2.33v20.73" transform="translate(-133.59 -2181)"/></svg>