<svg id="Layer_1" data-name="Layer 1" xmlns="http://www.w3.org/2000/svg" viewBox="0 0 200.89 200.89"><defs><style>.cls-1{fill:#2a2e4b;}.cls-2,.cls-3,.cls-4{fill:none;stroke-linecap:round;}.cls-2,.cls-4{stroke:#a1a0d4;}.cls-2,.cls-3{stroke-linejoin:round;}.cls-2{stroke-width:2.5px;}.cls-3{stroke:#30bfbf;}.cls-3,.cls-4{stroke-width:4px;}.cls-4{stroke-miterlimit:10;}</style></defs><title>Resume</title><circle class="cls-1" cx="168.4" cy="32.5" r="32.5"/><circle class="cls-1" cx="90" cy="110.89" r="90"/><line class="cls-2" x1="55.92" y1="112.2" x2="124.08" y2="112.2"/><line class="cls-3" x1="55.92" y1="146.2" x2="90.01" y2="146.2"/><line class="cls-2" x1="76.24" y1="78" x2="124.08" y2="78"/><path class="cls-2" d="M927.42,1639.57a100,100,0,0,0,28,0,1.19,1.19,0,0,0,.95-1.58,15.86,15.86,0,0,0-29.87,0A1.19,1.19,0,0,0,927.42,1639.57Z" transform="translate(-883 -1549.47)"/><circle class="cls-2" cx="58.41" cy="69.82" r="8.18"/><path class="cls-4" d="M913,1660.22q0,19.25,1.52,38.63a21.18,21.18,0,0,0,18.87,19.38,372.46,372.46,0,0,0,79.26,0,21.17,21.17,0,0,0,18.84-19.38q1.51-19.32,1.52-38.52t-1.52-38.52a21.17,21.17,0,0,0-18.84-19.38,372.46,372.46,0,0,0-79.26,0,21.18,21.18,0,0,0-18.87,19.38Q913,1641.25,913,1660.5" transform="translate(-883 -1549.47)"/></svg>