<svg id="Layer_1" data-name="Layer 1" xmlns="http://www.w3.org/2000/svg" viewBox="0 0 200.89 200.89"><defs><style>.cls-1{fill:#2a2e4b;}.cls-2,.cls-3,.cls-4,.cls-5,.cls-6,.cls-8{fill:none;}.cls-2{stroke:#1c89f1;}.cls-2,.cls-3,.cls-5,.cls-6,.cls-8{stroke-linecap:round;}.cls-2,.cls-3{stroke-miterlimit:10;}.cls-2,.cls-3,.cls-8{stroke-width:4px;}.cls-3,.cls-4,.cls-5,.cls-6{stroke:#a1a0d4;}.cls-4,.cls-5,.cls-6,.cls-8{stroke-linejoin:round;}.cls-4,.cls-5{stroke-width:2.5px;}.cls-6{stroke-width:2px;}.cls-7{fill:#a1a0d4;}.cls-8{stroke:#30bfbf;}</style></defs><title>Interview</title><circle class="cls-1" cx="168.4" cy="32.5" r="32.5"/><line class="cls-2" x1="168.4" y1="13.49" x2="168.4" y2="51.49"/><line class="cls-2" x1="187.4" y1="32.5" x2="149.4" y2="32.5"/><circle class="cls-1" cx="90" cy="110.89" r="90"/><path class="cls-3" d="M365,1660.22q0,19.25,1.52,38.63a21.18,21.18,0,0,0,18.87,19.38,372.46,372.46,0,0,0,79.26,0,21.17,21.17,0,0,0,18.84-19.38q1.51-19.32,1.52-38.52t-1.52-38.52a21.17,21.17,0,0,0-18.84-19.38,372.46,372.46,0,0,0-79.26,0,21.18,21.18,0,0,0-18.87,19.38Q365,1641.25,365,1660.5" transform="translate(-335 -1549.47)"/><path class="cls-4" d="M473,1705.45a186.14,186.14,0,0,1-51.71,0,2.37,2.37,0,0,1-1.89-3.15,29.54,29.54,0,0,1,55.49,0A2.37,2.37,0,0,1,473,1705.45Z" transform="translate(-335 -1549.47)"/><circle class="cls-5" cx="112.11" cy="118.33" r="15.1"/><path class="cls-5" d="M429.63,1688.63a34,34,0,0,0-16-7.65" transform="translate(-335 -1549.47)"/><path class="cls-5" d="M399.84,1681.26a34.16,34.16,0,0,0-24.45,21.56,2.73,2.73,0,0,0,2.18,3.64,214.78,214.78,0,0,0,49.09,1.21q3.92-.35,7.84-0.85" transform="translate(-335 -1549.47)"/><path class="cls-6" d="M459.7,1655.7a34.16,34.16,0,0,0-4.62-7.17,8.86,8.86,0,0,0-7.06-3.05,149.14,149.14,0,0,1-23.15-.9,8.82,8.82,0,0,1-7.72-7.48,62.45,62.45,0,0,1,0-17.54,8.83,8.83,0,0,1,7.75-7.49,149.07,149.07,0,0,1,34.58,0,8.83,8.83,0,0,1,7.74,7.49,62.45,62.45,0,0,1,0,17.54,8.83,8.83,0,0,1-7.48,7.45c1,3,.72,6.9,0,11.15" transform="translate(-335 -1549.47)"/><circle class="cls-7" cx="107.19" cy="78.85" r="3.5"/><circle class="cls-7" cx="93.79" cy="78.85" r="3.5"/><circle class="cls-7" cx="120.59" cy="78.85" r="3.5"/><line class="cls-8" x1="61.93" y1="146.06" x2="55.15" y2="146.06"/><path class="cls-5" d="M409.65,1681.31a8.57,8.57,0,0,0,.91,2.6,8.59,8.59,0,0,1-9.1-3.84q-0.21-.33-0.38-0.68a2.85,2.85,0,0,0-1.29-1.26,17.17,17.17,0,1,1,11,1.46A1.48,1.48,0,0,0,409.65,1681.31Z" transform="translate(-335 -1549.47)"/><path class="cls-5" d="M402.15,1669.43a9.14,9.14,0,0,0,10.55,0" transform="translate(-335 -1549.47)"/></svg>